<svg width="20" height="20" viewBox="0 0 20 20" fill="none" xmlns="http://www.w3.org/2000/svg">
<g clip-path="url(#clip0_1_167)">
<path fill-rule="evenodd" clip-rule="evenodd" d="M9.64448 6.26172C9.64448 3.95846 11.5111 2.09143 13.8133 2.09143C15.1648 2.09143 16.244 2.73072 16.9672 3.65847C17.7439 3.49956 18.4743 3.21218 19.1351 2.82011C18.8745 3.63464 18.3232 4.31947 17.6044 4.75284C17.6051 4.75424 17.6056 4.75566 17.6063 4.75706C18.3112 4.67148 18.9819 4.48403 19.6064 4.20728L19.6049 4.20954C19.1556 4.88244 18.5908 5.47648 17.9415 5.96046C17.9764 6.19563 17.9941 6.43236 17.9941 6.66772C17.9941 11.5828 14.2497 17.2995 7.36163 17.2995C5.25208 17.2995 3.28725 16.6813 1.6334 15.6203C1.32351 15.4215 1.23348 15.0091 1.43231 14.6992C1.44987 14.6717 1.46911 14.6461 1.48979 14.6221C1.60776 14.4269 1.83251 14.3079 2.07387 14.3363C3.29421 14.4801 4.51424 14.3313 5.58959 13.8616C4.52301 13.3912 3.69505 12.4797 3.33605 11.3597C3.27145 11.1581 3.3178 10.9375 3.45801 10.779C3.46288 10.7735 3.46783 10.7681 3.47285 10.7628C2.61855 10.0109 2.07964 8.90944 2.07964 7.68191V7.63679C2.07964 7.42419 2.19215 7.22746 2.3754 7.11966C2.43561 7.08423 2.50049 7.06015 2.56709 7.04744C2.27399 6.48206 2.10821 5.83979 2.10821 5.15944C2.10821 4.53554 2.11179 3.74923 2.55109 3.04108C2.64957 2.88234 2.81011 2.78554 2.98187 2.7626C3.23451 2.68316 3.52116 2.75959 3.69875 2.97736C5.15381 4.76168 7.25421 5.99444 9.64488 6.31948L9.64448 6.26172ZM7.36163 15.9661C6.31183 15.9661 5.30375 15.7913 4.36331 15.4697C5.50683 15.2717 6.60409 14.8212 7.54957 14.0803C7.74948 13.9236 7.82909 13.658 7.74835 13.4172C7.6676 13.1765 7.444 13.0126 7.19007 13.0081C6.25291 12.9916 5.42283 12.5296 4.90391 11.8246C5.15771 11.8041 5.40571 11.7605 5.64593 11.6956C5.91471 11.6229 6.09817 11.3749 6.08899 11.0966C6.0798 10.8183 5.88039 10.5829 5.6074 10.5281C4.56925 10.3197 3.73177 9.55686 3.41559 8.56232C3.6834 8.627 3.96136 8.66547 4.24643 8.6748C4.51417 8.68356 4.75528 8.51378 4.83727 8.25874C4.91924 8.0037 4.82221 7.72522 4.59951 7.57632C3.82031 7.0554 3.30821 6.16619 3.30821 5.15944C3.30821 4.93618 3.31136 4.73691 3.32473 4.55626C5.13487 6.39884 7.61164 7.58575 10.3678 7.72451C10.5763 7.73502 10.7777 7.64724 10.9119 7.48738C11.0462 7.3275 11.0978 7.11398 11.0513 6.91046C11.0034 6.70023 10.9778 6.48379 10.9778 6.26172C10.9778 4.69447 12.2479 3.42476 13.8133 3.42476C15.4591 3.42476 16.6608 4.94944 16.6608 6.66772C16.6608 11.0095 13.3603 15.9661 7.36163 15.9661Z" fill="white"/>
</g>
<defs>
<clipPath id="clip0_1_167">
<rect width="20" height="20" fill="white"/>
</clipPath>
</defs>
</svg>
